<svg width="22" height="19" viewBox="0 0 22 19" fill="none" xmlns="http://www.w3.org/2000/svg">
    <path d="M11.2727 18.2727L2.51136 9.51136C1.8125 8.8125 1.34659 8 1.11364 7.07386C0.886364 6.14773 0.889205 5.22727 1.12216 4.3125C1.35511 3.39205 1.81818 2.59091 2.51136 1.90909C3.22159 1.21023 4.03125 0.747159 4.94034 0.519886C5.85511 0.286932 6.76705 0.286932 7.67614 0.519886C8.59091 0.752841 9.40341 1.21591 10.1136 1.90909L11.2727 3.03409L12.4318 1.90909C13.1477 1.21591 13.9602 0.752841 14.8693 0.519886C15.7784 0.286932 16.6875 0.286932 17.5966 0.519886C18.5114 0.747159 19.3239 1.21023 20.0341 1.90909C20.7273 2.59091 21.1903 3.39205 21.4233 4.3125C21.6563 5.22727 21.6563 6.14773 21.4233 7.07386C21.196 8 20.733 8.8125 20.0341 9.51136L11.2727 18.2727Z" fill="currentColor"/>
</svg>
